<svg width="19" height="19" viewBox="0 0 19 19" fill="none" xmlns="http://www.w3.org/2000/svg">
<path d="M16.9475 15.6375L13.4559 12.1459C14.2965 11.0268 14.7503 9.66465 14.7487 8.265C14.7487 4.68988 11.8401 1.78125 8.265 1.78125C4.68988 1.78125 1.78125 4.68988 1.78125 8.265C1.78125 11.8401 4.68988 14.7487 8.265 14.7487C9.66465 14.7503 11.0268 14.2965 12.1459 13.4559L15.6375 16.9475C15.8143 17.1055 16.0448 17.1898 16.2818 17.1832C16.5187 17.1765 16.7442 17.0794 16.9118 16.9118C17.0794 16.7442 17.1765 16.5187 17.1832 16.2818C17.1898 16.0448 17.1055 15.8143 16.9475 15.6375ZM3.63375 8.265C3.63375 7.34902 3.90537 6.45362 4.41426 5.69202C4.92314 4.93041 5.64645 4.33681 6.4927 3.98628C7.33895 3.63575 8.27014 3.54404 9.16851 3.72274C10.0669 3.90144 10.8921 4.34252 11.5398 4.99021C12.1875 5.6379 12.6286 6.46311 12.8073 7.36149C12.986 8.25986 12.8942 9.19105 12.5437 10.0373C12.1932 10.8836 11.5996 11.6069 10.838 12.1157C10.0764 12.6246 9.18097 12.8962 8.265 12.8962C7.03717 12.8948 5.86005 12.4064 4.99184 11.5382C4.12363 10.67 3.63522 9.49283 3.63375 8.265Z" fill="black"/>
</svg>
