<svg width="23" height="23" viewBox="0 0 23 23" fill="none" xmlns="http://www.w3.org/2000/svg">
<path d="M18.6875 2.875H17.9688V2.17646C17.9688 1.78968 17.6714 1.45771 17.2846 1.43839C17.1874 1.43371 17.0903 1.44881 16.9991 1.48277C16.9079 1.51673 16.8246 1.56885 16.7542 1.63597C16.6837 1.70309 16.6277 1.78381 16.5893 1.87324C16.551 1.96267 16.5313 2.05895 16.5312 2.15625V2.875H6.46875V2.17646C6.46875 1.78968 6.17137 1.45771 5.78459 1.43839C5.68741 1.43371 5.59029 1.44881 5.49911 1.48277C5.40794 1.51673 5.32461 1.56885 5.25417 1.63597C5.18373 1.70309 5.12766 1.78381 5.08934 1.87324C5.05102 1.96267 5.03126 2.05895 5.03125 2.15625V2.875H4.3125C3.55 2.875 2.81874 3.1779 2.27957 3.71706C1.7404 4.25623 1.4375 4.9875 1.4375 5.75V6.28906C1.4375 6.33671 1.45643 6.38242 1.49013 6.41612C1.52383 6.44981 1.56953 6.46875 1.61719 6.46875H21.3828C21.4305 6.46875 21.4762 6.44981 21.5099 6.41612C21.5436 6.38242 21.5625 6.33671 21.5625 6.28906V5.75C21.5625 4.9875 21.2596 4.25623 20.7204 3.71706C20.1813 3.1779 19.45 2.875 18.6875 2.875ZM21.3828 7.90625H1.61719C1.56953 7.90625 1.52383 7.92518 1.49013 7.95887C1.45643 7.99257 1.4375 8.03828 1.4375 8.08593V18.6875C1.4375 19.45 1.7404 20.1813 2.27957 20.7204C2.81874 21.2596 3.55 21.5625 4.3125 21.5625H18.6875C19.45 21.5625 20.1813 21.2596 20.7204 20.7204C21.2596 20.1813 21.5625 19.45 21.5625 18.6875V8.08593C21.5625 8.03828 21.5436 7.99257 21.5099 7.95887C21.4762 7.92518 21.4305 7.90625 21.3828 7.90625ZM10.7624 18.0182C10.2157 18.4499 9.47088 18.6875 8.66453 18.6875C7.41256 18.6875 6.48672 17.8717 6.07434 17.1736C5.97724 17.0095 5.94933 16.8134 5.99676 16.6287C6.04419 16.4439 6.16307 16.2856 6.32725 16.1885C6.49142 16.0914 6.68745 16.0635 6.87219 16.1109C7.05694 16.1583 7.21528 16.2772 7.31238 16.4414C7.3609 16.5241 7.81326 17.25 8.66453 17.25C9.41293 17.25 10.2871 16.9225 10.2871 16.0003C10.2871 15.7195 10.2323 15.3287 9.97266 15.0623C9.58902 14.6697 8.95068 14.4931 8.62006 14.4931C8.42943 14.4931 8.24662 14.4174 8.11183 14.2826C7.97703 14.1478 7.90131 13.965 7.90131 13.7744C7.90131 13.5838 7.97703 13.4009 8.11183 13.2662C8.24662 13.1314 8.42943 13.0556 8.62006 13.0556C8.83793 13.0556 9.40215 12.9388 9.75568 12.5772C9.85133 12.4832 9.92682 12.3706 9.97756 12.2464C10.0283 12.1222 10.0532 11.989 10.0508 11.8549C10.0508 10.8113 8.76471 10.7812 8.61826 10.7812C7.83932 10.7812 7.54912 11.2579 7.53699 11.2781C7.4903 11.3618 7.42732 11.4353 7.35178 11.4944C7.27624 11.5534 7.18965 11.5967 7.09712 11.6217C7.00459 11.6468 6.90798 11.6531 6.81298 11.6402C6.71798 11.6274 6.62651 11.5957 6.54395 11.547C6.4614 11.4982 6.38942 11.4335 6.33226 11.3565C6.2751 11.2796 6.23392 11.1919 6.21113 11.0988C6.18834 11.0057 6.18441 10.909 6.19957 10.8143C6.21473 10.7197 6.24867 10.629 6.29939 10.5477C6.6426 9.96367 7.43232 9.34375 8.61826 9.34375C9.35678 9.34375 10.045 9.55802 10.5557 9.9466C11.1572 10.4048 11.4883 11.0822 11.4883 11.8549C11.4903 12.1752 11.4289 12.4928 11.3075 12.7892C11.1862 13.0857 11.0073 13.3552 10.7812 13.5821C10.7296 13.6351 10.6752 13.6845 10.62 13.7326C10.7549 13.8301 10.8815 13.9387 10.9982 14.0574C11.4726 14.5426 11.7233 15.2141 11.7233 16.0003C11.7246 16.8116 11.3828 17.5281 10.7624 18.0182ZM16.5312 17.7891C16.5312 17.9797 16.4555 18.1625 16.3207 18.2973C16.1859 18.4321 16.0031 18.5078 15.8125 18.5078C15.6219 18.5078 15.4391 18.4321 15.3043 18.2973C15.1695 18.1625 15.0938 17.9797 15.0938 17.7891V11.513L14.0826 12.2583C14.0066 12.3143 13.9203 12.3548 13.8287 12.3775C13.737 12.4002 13.6418 12.4047 13.5484 12.3906C13.4551 12.3765 13.3654 12.3441 13.2846 12.2954C13.2037 12.2466 13.1332 12.1824 13.0772 12.1064C13.0212 12.0305 12.9806 11.9442 12.9579 11.8525C12.9352 11.7609 12.9308 11.6657 12.9449 11.5723C12.959 11.479 12.9914 11.3893 13.0401 11.3084C13.0889 11.2276 13.1531 11.1571 13.229 11.1011L15.1796 9.66359C15.3031 9.57257 15.4524 9.52346 15.6059 9.52343H15.8125C16.0031 9.52343 16.1859 9.59916 16.3207 9.73395C16.4555 9.86874 16.5312 10.0516 16.5312 10.2422V17.7891Z" fill="#00D2BD"/>
</svg>
