<svg width="23" height="23" viewBox="0 0 23 23" fill="none" xmlns="http://www.w3.org/2000/svg">
<path d="M14.9428 2.90105C14.0686 1.95725 12.8477 1.4375 11.5 1.4375C10.1452 1.4375 8.92015 1.9541 8.05001 2.89207C7.17044 3.84037 6.74189 5.12918 6.84251 6.52086C7.04197 9.26648 9.13128 11.5 11.5 11.5C13.8687 11.5 15.9545 9.26693 16.1571 6.52176C16.259 5.14266 15.8278 3.85654 14.9428 2.90105ZM19.4063 21.5625H3.59376C3.38679 21.5652 3.18182 21.5217 2.99377 21.4352C2.80572 21.3487 2.63931 21.2214 2.50665 21.0625C2.21466 20.7135 2.09697 20.2369 2.18411 19.7548C2.56325 17.6516 3.7465 15.8848 5.60626 14.6445C7.25849 13.5435 9.3514 12.9375 11.5 12.9375C13.6486 12.9375 15.7415 13.5439 17.3938 14.6445C19.2535 15.8844 20.4368 17.6512 20.8159 19.7544C20.9031 20.2364 20.7854 20.713 20.4934 21.0621C20.3608 21.221 20.1944 21.3485 20.0063 21.435C19.8183 21.5216 19.6133 21.5651 19.4063 21.5625Z" fill="#00D2BD"/>
</svg>
