<svg width="23" height="23" viewBox="0 0 23 23" fill="none" xmlns="http://www.w3.org/2000/svg">
<path d="M18.3281 4.3125H11.3253C11.1126 4.31319 10.9044 4.25064 10.7274 4.13282L9.47853 3.29772C9.06499 3.02119 8.57848 2.87403 8.08101 2.875H4.67188C4.00492 2.87572 3.36547 3.14099 2.89386 3.6126C2.42224 4.08422 2.15697 4.72366 2.15626 5.39063V6.46875H20.8438C20.8438 5.08157 19.7153 4.3125 18.3281 4.3125ZM19.0357 20.125H3.96437C3.30429 20.1243 2.67095 19.8641 2.20094 19.4006C1.73093 18.9372 1.4619 18.3076 1.45188 17.6476L0.726846 10.2471V10.2346C0.703103 9.93794 0.741008 9.63963 0.838177 9.35838C0.935345 9.07713 1.08967 8.81904 1.29145 8.60034C1.49323 8.38165 1.73808 8.20708 2.01061 8.08763C2.28314 7.96817 2.57745 7.90642 2.87501 7.90625H20.1295C20.427 7.90655 20.7212 7.96839 20.9936 8.0879C21.266 8.2074 21.5108 8.38199 21.7125 8.60067C21.9141 8.81936 22.0684 9.07741 22.1655 9.35859C22.2626 9.63978 22.3005 9.93802 22.2768 10.2346V10.2471L21.5481 17.6476C21.5381 18.3076 21.2691 18.9372 20.7991 19.4006C20.3291 19.8641 19.6957 20.1243 19.0357 20.125Z" fill="#00D2BD"/>
</svg>
